<?xml version="1.0" encoding="utf-8"?>
<!-- Generator: Adobe Illustrator 22.1.0, SVG Export Plug-In . SVG Version: 6.00 Build 0)  -->
<svg version="1.1" id="Layer_1" xmlns="http://www.w3.org/2000/svg" xmlns:xlink="http://www.w3.org/1999/xlink" x="0px" y="0px"
	 viewBox="0 0 20 16.3" style="enable-background:new 0 0 20 16.3;" xml:space="preserve">
<style type="text/css">
	.st0{fill:#666666;}
</style>
<g>
	<g>
		<path class="st0" d="M10,0.4L1.9,7.4l0.8,1l0.8-0.7V14c0,1,0.9,1.9,1.9,1.9h3.6V9.7h2.2v6.2h3.5c1,0,1.9-0.9,1.9-1.9V7.7l0.8,0.7
			l0.8-1L10,0.4z M15.3,14c0,0.3-0.3,0.6-0.6,0.6h-2.2V8.4H7.7v6.2H5.4c-0.3,0-0.6-0.3-0.6-0.6V6.6L10,2.1l5.3,4.6V14z"/>
	</g>
</g>
</svg>
