<?xml version="1.0" encoding="utf-8"?>
<!-- Generator: Adobe Illustrator 22.1.0, SVG Export Plug-In . SVG Version: 6.00 Build 0)  -->
<svg version="1.1" id="Capa_1" xmlns="http://www.w3.org/2000/svg" xmlns:xlink="http://www.w3.org/1999/xlink" x="0px" y="0px"
	 viewBox="0 0 47 47" style="enable-background:new 0 0 47 47;" xml:space="preserve">
<style type="text/css">
	.st0{fill:#FFFFFF;}
</style>
<path class="st0" d="M34.2,30.2c2.3-3.1,3.6-6.9,3.6-10.9C37.8,9,29.5,0.6,19.2,0.6S0.6,9,0.6,19.2S9,37.8,19.2,37.8
	c4.1,0,7.9-1.3,10.9-3.6l12.2,12.2l4-4C46.4,42.3,34.2,30.2,34.2,30.2L34.2,30.2z M19.2,32.1c-7.1,0-12.9-5.8-12.9-12.9
	S12.1,6.3,19.2,6.3s12.9,5.8,12.9,12.9S26.3,32.1,19.2,32.1L19.2,32.1z"/>
</svg>
